<svg width="1397" height="126" viewBox="0 0 1397 126" fill="none" xmlns="http://www.w3.org/2000/svg">
<path d="M55.6719 26.0273C40.5352 26.0273 32.4297 35.8906 31.2578 55.4219L4.01172 53.1758C4.98828 36.5742 9.77344 23.6836 18.5625 14.5039C27.2539 5.32422 39.8516 0.636719 56.2578 0.636719C71.4922 0.636719 83.2109 3.95703 91.3164 10.5977C99.3242 17.2383 103.426 27.1992 103.426 40.3828C103.426 51.6133 99.4219 60.5 91.4141 67.043C83.4062 73.5859 71.2969 78.3711 55.0859 81.3984C45.8086 83.5469 39.4609 85.6953 35.9453 87.8438C32.4297 89.9922 30.2812 93.3125 29.6953 97.8047C39.0703 97.6094 45.5156 97.4141 49.2266 97.4141H104.207V123H1.47266C1.08203 118.215 0.886719 113.332 0.886719 108.352C0.886719 98.7812 2.35156 90.8711 5.47656 84.5234C8.50391 78.2734 13.0938 73.1953 19.3438 69.3867C25.5938 65.6758 33.8945 62.5508 44.2461 60.207C52.4492 58.3516 58.7969 56.3984 63.1914 54.4453C67.5859 52.4922 70.5156 50.4414 71.9805 48.293C73.4453 46.1445 74.2266 43.5078 74.2266 40.1875C74.2266 35.9883 72.6641 32.5703 69.5391 29.9336C66.4141 27.3945 61.7266 26.0273 55.6719 26.0273ZM165.461 26.0273C156.867 26.0273 150.324 29.3477 145.637 35.793C140.949 42.3359 138.605 51.3203 138.605 62.6484C138.605 74.0742 140.852 83.1562 145.539 89.8945C150.227 96.6328 156.672 99.9531 165.07 99.9531C173.664 99.9531 180.305 96.6328 184.992 89.8945C189.68 83.2539 192.023 74.1719 192.023 62.6484C192.023 51.3203 189.68 42.3359 184.992 35.793C180.305 29.3477 173.859 26.0273 165.461 26.0273ZM165.461 0.246094C182.16 0.246094 195.539 5.71484 205.695 16.5547C215.754 27.4922 220.832 42.8242 220.832 62.6484C220.832 82.668 215.852 98.1953 205.891 109.23C195.93 120.363 182.453 125.832 165.461 125.832C148.371 125.832 134.895 120.363 124.934 109.328C114.973 98.293 109.992 82.7656 109.992 62.6484C109.992 42.9219 115.07 27.5898 125.227 16.6523C135.383 5.71484 148.762 0.246094 165.461 0.246094ZM281.305 26.0273C266.168 26.0273 258.062 35.8906 256.891 55.4219L229.645 53.1758C230.621 36.5742 235.406 23.6836 244.195 14.5039C252.887 5.32422 265.484 0.636719 281.891 0.636719C297.125 0.636719 308.844 3.95703 316.949 10.5977C324.957 17.2383 329.059 27.1992 329.059 40.3828C329.059 51.6133 325.055 60.5 317.047 67.043C309.039 73.5859 296.93 78.3711 280.719 81.3984C271.441 83.5469 265.094 85.6953 261.578 87.8438C258.062 89.9922 255.914 93.3125 255.328 97.8047C264.703 97.6094 271.148 97.4141 274.859 97.4141H329.84V123H227.105C226.715 118.215 226.52 113.332 226.52 108.352C226.52 98.7812 227.984 90.8711 231.109 84.5234C234.137 78.2734 238.727 73.1953 244.977 69.3867C251.227 65.6758 259.527 62.5508 269.879 60.207C278.082 58.3516 284.43 56.3984 288.824 54.4453C293.219 52.4922 296.148 50.4414 297.613 48.293C299.078 46.1445 299.859 43.5078 299.859 40.1875C299.859 35.9883 298.297 32.5703 295.172 29.9336C292.047 27.3945 287.359 26.0273 281.305 26.0273ZM388.262 124.953C355.352 124.953 337.773 110.402 335.625 81.2031L363.848 78.957C364.238 82.4727 364.922 85.5 365.898 87.8438C366.875 90.1875 368.242 92.3359 370.098 94.2891C371.855 96.2422 374.395 97.6094 377.52 98.5859C380.645 99.5625 384.453 99.9531 389.043 99.9531C395.488 99.9531 400.371 98.7812 403.789 96.3398C407.109 93.9961 408.867 90.5781 408.867 86.1836C408.867 81.6914 407.402 78.4688 404.668 76.418C401.836 74.4648 396.758 73.3906 389.434 73.3906H370.293V52.1992H389.434C394.902 52.1992 399.102 51.2227 401.934 49.2695C404.766 47.3164 406.23 44.0938 406.23 39.6016C406.23 34.9141 404.668 31.3984 401.641 29.25C398.613 27.1016 393.926 26.0273 387.676 26.0273C380.254 26.0273 375.078 27.5898 371.953 30.6172C368.828 33.7422 366.875 38.5273 366.094 44.9727L338.848 42.8242C340.312 29.543 345 19.2891 353.008 11.9648C361.016 4.73828 372.441 1.02734 387.48 1.02734C403.008 1.02734 414.434 3.76172 421.855 9.13281C429.18 14.6016 432.891 22.6094 432.891 33.1562C432.891 47.8047 424.98 57.2773 409.258 61.5742V61.9648C419.707 63.332 427.031 66.2617 431.328 70.5586C435.527 74.9531 437.676 81.3984 437.676 89.7969C437.676 100.637 433.574 109.23 425.469 115.48C417.363 121.828 404.961 124.953 388.262 124.953ZM523.172 28.5664H506.57V61.1836H523.562C536.062 61.1836 542.41 55.7148 542.41 44.7773C542.41 39.3086 540.848 35.207 537.723 32.5703C534.598 29.9336 529.715 28.5664 523.172 28.5664ZM526.785 86.7695H506.57V123H477.762V2.98047H525.809C556.863 2.98047 572.391 16.9453 572.391 44.7773C572.391 56.8867 568.289 66.9453 560.184 74.8555C552.078 82.8633 540.945 86.7695 526.785 86.7695ZM638.723 125.832C629.152 125.832 620.363 124.27 612.551 121.047C604.738 117.922 598.195 113.527 593.02 107.863C587.746 102.199 583.742 95.5586 580.91 87.8438C578.078 80.1289 576.711 71.7305 576.711 62.6484C576.711 50.6367 579.152 39.8945 584.23 30.5195C589.309 21.1445 596.535 13.7227 606.008 8.35156C615.383 2.98047 626.32 0.246094 638.723 0.246094C651.125 0.246094 662.062 2.98047 671.438 8.35156C680.812 13.7227 688.039 21.1445 693.02 30.5195C698 39.8945 700.539 50.6367 700.539 62.6484C700.539 74.7578 698.098 85.5977 693.312 95.0703C688.43 104.641 681.301 112.16 671.926 117.629C662.453 123.098 651.418 125.832 638.723 125.832ZM638.723 99.9531C649.465 99.9531 657.766 96.6328 663.43 89.8945C669.094 83.1562 671.926 73.9766 671.926 62.3555C671.926 52.0039 668.996 43.3125 663.234 36.4766C657.375 29.6406 649.27 26.2227 638.723 26.2227C628.176 26.2227 619.973 29.6406 614.211 36.4766C608.352 43.3125 605.52 52.0039 605.52 62.3555C605.52 73.9766 608.352 83.1562 614.016 89.8945C619.68 96.6328 627.883 99.9531 638.723 99.9531ZM762.086 28.5664H738.258V55.0312H761.695C773.414 55.0312 779.273 50.5391 779.273 41.3594C779.273 32.8633 773.512 28.5664 762.086 28.5664ZM781.715 123L754.469 78.7617H738.258V123H709.449V2.98047H763.062C777.711 2.98047 788.746 6.20312 796.363 12.5508C803.883 18.9961 807.691 28.2734 807.691 40.5781C807.691 49.6602 805.543 57.1797 801.344 63.0391C797.145 68.9961 791.09 73.293 783.277 75.832L815.699 122.609V123H781.715ZM816.406 30.2266V2.98047H914.258V30.2266H879.785V123H850.977V30.2266H816.406ZM1003.83 83.6445H950.805V123H921.996V2.98047H1008.81V30.2266H950.805V56.3984H1003.83V83.6445ZM1075.54 125.832C1065.96 125.832 1057.18 124.27 1049.36 121.047C1041.55 117.922 1035.01 113.527 1029.83 107.863C1024.56 102.199 1020.55 95.5586 1017.72 87.8438C1014.89 80.1289 1013.52 71.7305 1013.52 62.6484C1013.52 50.6367 1015.96 39.8945 1021.04 30.5195C1026.12 21.1445 1033.35 13.7227 1042.82 8.35156C1052.2 2.98047 1063.13 0.246094 1075.54 0.246094C1087.94 0.246094 1098.88 2.98047 1108.25 8.35156C1117.62 13.7227 1124.85 21.1445 1129.83 30.5195C1134.81 39.8945 1137.35 50.6367 1137.35 62.6484C1137.35 74.7578 1134.91 85.5977 1130.12 95.0703C1125.24 104.641 1118.11 112.16 1108.74 117.629C1099.27 123.098 1088.23 125.832 1075.54 125.832ZM1075.54 99.9531C1086.28 99.9531 1094.58 96.6328 1100.24 89.8945C1105.91 83.1562 1108.74 73.9766 1108.74 62.3555C1108.74 52.0039 1105.81 43.3125 1100.05 36.4766C1094.19 29.6406 1086.08 26.2227 1075.54 26.2227C1064.99 26.2227 1056.79 29.6406 1051.02 36.4766C1045.16 43.3125 1042.33 52.0039 1042.33 62.3555C1042.33 73.9766 1045.16 83.1562 1050.83 89.8945C1056.49 96.6328 1064.7 99.9531 1075.54 99.9531ZM1175.07 2.98047V95.7539H1226.73V123H1146.26V2.98047H1175.07ZM1264.16 123H1235.35V2.98047H1264.16V123ZM1335.18 125.832C1325.61 125.832 1316.82 124.27 1309 121.047C1301.19 117.922 1294.65 113.527 1289.47 107.863C1284.2 102.199 1280.2 95.5586 1277.36 87.8438C1274.53 80.1289 1273.16 71.7305 1273.16 62.6484C1273.16 50.6367 1275.61 39.8945 1280.68 30.5195C1285.76 21.1445 1292.99 13.7227 1302.46 8.35156C1311.84 2.98047 1322.77 0.246094 1335.18 0.246094C1347.58 0.246094 1358.52 2.98047 1367.89 8.35156C1377.27 13.7227 1384.49 21.1445 1389.47 30.5195C1394.45 39.8945 1396.99 50.6367 1396.99 62.6484C1396.99 74.7578 1394.55 85.5977 1389.77 95.0703C1384.88 104.641 1377.75 112.16 1368.38 117.629C1358.91 123.098 1347.87 125.832 1335.18 125.832ZM1335.18 99.9531C1345.92 99.9531 1354.22 96.6328 1359.88 89.8945C1365.55 83.1562 1368.38 73.9766 1368.38 62.3555C1368.38 52.0039 1365.45 43.3125 1359.69 36.4766C1353.83 29.6406 1345.72 26.2227 1335.18 26.2227C1324.63 26.2227 1316.43 29.6406 1310.66 36.4766C1304.8 43.3125 1301.97 52.0039 1301.97 62.3555C1301.97 73.9766 1304.8 83.1562 1310.47 89.8945C1316.13 96.6328 1324.34 99.9531 1335.18 99.9531Z" fill="black"/>
</svg>
