<svg width="1528" height="150" viewBox="0 0 1528 150" fill="none" xmlns="http://www.w3.org/2000/svg">
<path d="M55.0586 125.832C22.0508 125.637 3.78906 111.867 0.273438 84.4258L28.4961 78.7617C29.8633 85.8906 33.0859 91.3594 38.1641 95.2656C43.1445 99.1719 49.4922 101.027 57.1094 101.027C63.0664 101.027 67.6562 100.051 70.9766 98C74.1992 95.9492 75.8594 93.0195 75.8594 89.2109C75.8594 85.3047 73.8086 82.2773 69.9023 80.0312C65.9961 77.8828 58.7695 75.9297 48.3203 74.3672C32.5 72.0234 21.1719 67.7266 14.5312 61.3789C7.79297 55.0312 4.47266 46.7305 4.47266 36.5742C4.47266 25.1484 8.47656 16.2617 16.6797 9.81641C24.7852 3.46875 36.6016 0.246094 52.1289 0.246094C80.9375 0.246094 97.832 13.1367 102.91 38.8203L74.4922 44.582C72.7344 37.5508 70 32.4727 66.3867 29.25C62.6758 26.0273 57.4023 24.3672 50.4688 24.3672C45 24.3672 40.8008 25.4414 37.9688 27.4922C35.0391 29.6406 33.6719 32.4727 33.6719 35.9883C33.6719 37.7461 33.9648 39.3086 34.5508 40.4805C35.1367 41.6523 36.4062 42.9219 38.3594 44.2891C40.2148 45.6562 43.1445 46.8281 47.0508 47.9023C50.957 48.9766 55.9375 49.9531 62.0898 50.832C70.293 52.1992 77.3242 54.0547 83.1836 56.4961C88.9453 59.0352 93.4375 61.9648 96.5625 65.2852C99.6875 68.7031 101.836 72.2188 103.203 75.9297C104.57 79.6406 105.254 83.7422 105.254 88.2344C105.254 100.051 101.055 109.23 92.7539 115.871C84.4531 122.512 71.8555 125.832 55.0586 125.832ZM114.262 123V2.98047H204.887V30.2266H143.07V50.4414H199.906V74.3672H143.07V95.7539H204.887V123H114.262ZM270.242 98.3906C286.062 98.3906 294.07 89.4062 294.07 71.4375V2.98047H322.879V75.4414C322.879 91.3594 318.289 103.664 309.207 112.453C300.125 121.242 287.137 125.637 270.242 125.637C253.152 125.637 239.969 121.242 230.691 112.453C221.414 103.664 216.824 91.2617 216.824 75.4414V2.98047H245.633V71.2422C245.633 89.4062 253.836 98.3906 270.242 98.3906ZM406.984 123L383.254 75.6367C376.711 62.5508 370.07 47.8047 363.234 31.2031H362.453C363.039 48.3906 363.43 63.625 363.43 77.0039V123H335.988V2.98047H379.445L399.074 43.2148C406.105 58.0586 412.453 72.8047 418.215 87.6484H418.996C418.605 73.6836 418.41 60.8906 418.41 49.1719V2.98047H445.852V123H406.984ZM505.348 124.953C494.996 124.953 485.914 122.414 478.297 117.336C470.582 112.258 464.723 105.129 460.816 96.0469C456.812 87.0625 454.859 76.5156 454.859 64.6016C454.859 44.875 459.938 29.25 470.289 17.7266C480.543 6.20312 495.387 0.441406 514.723 0.441406C530.738 0.441406 543.238 4.44531 552.223 12.2578C561.207 20.0703 566.773 31.1055 568.922 45.3633L541.871 51.0273C540.113 42.8242 537.086 36.6719 532.691 32.4727C528.297 28.3711 522.047 26.2227 513.941 26.2227C493.824 26.2227 483.863 39.0156 483.863 64.6016C483.863 88.8203 494.41 100.832 515.699 100.832C534.059 100.832 543.336 94.4844 543.336 81.5938V79.6406H513.746V56.0078H570.484V123H543.336V96.2422H542.75C540.602 105.031 536.5 111.965 530.445 117.141C524.391 122.414 515.992 124.953 505.348 124.953ZM682.055 69.582L672.191 123H633.227L603.832 2.98047H634.789L645.629 54.4453C648.949 72.1211 651.293 86.4766 652.855 97.4141H654.223C657.348 80.0312 659.984 65.6758 662.23 54.4453L673.656 2.98047H709.984L720.824 54.4453C723.363 68.3125 725.805 82.668 728.051 97.4141H729.613C730.395 91.8477 731.762 83.8398 733.715 73.3906C735.668 62.9414 736.84 56.5938 737.23 54.4453L747.191 2.98047H776.586L747.191 123H707.641L697.387 69.582C694.555 54.3477 692.211 40.0898 690.453 27.0039H689.184C685.961 46.7305 683.617 60.9883 682.055 69.582ZM779.441 123V2.98047H870.066V30.2266H808.25V50.4414H865.086V74.3672H808.25V95.7539H870.066V123H779.441ZM937.277 125.832C927.707 125.832 918.918 124.27 911.105 121.047C903.293 117.922 896.75 113.527 891.574 107.863C886.301 102.199 882.297 95.5586 879.465 87.8438C876.633 80.1289 875.266 71.7305 875.266 62.6484C875.266 50.6367 877.707 39.8945 882.785 30.5195C887.863 21.1445 895.09 13.7227 904.562 8.35156C913.938 2.98047 924.875 0.246094 937.277 0.246094C949.68 0.246094 960.617 2.98047 969.992 8.35156C979.367 13.7227 986.594 21.1445 991.574 30.5195C996.555 39.8945 999.094 50.6367 999.094 62.6484C999.094 74.7578 996.652 85.5977 991.867 95.0703C986.984 104.641 979.855 112.16 970.48 117.629C961.008 123.098 949.973 125.832 937.277 125.832ZM937.277 99.9531C948.02 99.9531 956.32 96.6328 961.984 89.8945C967.648 83.1562 970.48 73.9766 970.48 62.3555C970.48 52.0039 967.551 43.3125 961.789 36.4766C955.93 29.6406 947.824 26.2227 937.277 26.2227C926.73 26.2227 918.527 29.6406 912.766 36.4766C906.906 43.3125 904.074 52.0039 904.074 62.3555C904.074 73.9766 906.906 83.1562 912.57 89.8945C918.234 96.6328 926.438 99.9531 937.277 99.9531ZM1079 123L1055.27 75.6367C1048.73 62.5508 1042.09 47.8047 1035.25 31.2031H1034.47C1035.05 48.3906 1035.45 63.625 1035.45 77.0039V123H1008V2.98047H1051.46L1071.09 43.2148C1078.12 58.0586 1084.47 72.8047 1090.23 87.6484H1091.01C1090.62 73.6836 1090.43 60.8906 1090.43 49.1719V2.98047H1117.87V123H1079ZM1132.73 92.4336H1160.27L1139.28 149.953H1119.36V149.562L1132.73 92.4336ZM1248.7 125.832C1215.69 125.637 1197.43 111.867 1193.91 84.4258L1222.14 78.7617C1223.5 85.8906 1226.73 91.3594 1231.8 95.2656C1236.79 99.1719 1243.13 101.027 1250.75 101.027C1256.71 101.027 1261.3 100.051 1264.62 98C1267.84 95.9492 1269.5 93.0195 1269.5 89.2109C1269.5 85.3047 1267.45 82.2773 1263.54 80.0312C1259.64 77.8828 1252.41 75.9297 1241.96 74.3672C1226.14 72.0234 1214.81 67.7266 1208.17 61.3789C1201.43 55.0312 1198.11 46.7305 1198.11 36.5742C1198.11 25.1484 1202.12 16.2617 1210.32 9.81641C1218.43 3.46875 1230.24 0.246094 1245.77 0.246094C1274.58 0.246094 1291.47 13.1367 1296.55 38.8203L1268.13 44.582C1266.38 37.5508 1263.64 32.4727 1260.03 29.25C1256.32 26.0273 1251.04 24.3672 1244.11 24.3672C1238.64 24.3672 1234.44 25.4414 1231.61 27.4922C1228.68 29.6406 1227.31 32.4727 1227.31 35.9883C1227.31 37.7461 1227.61 39.3086 1228.19 40.4805C1228.78 41.6523 1230.05 42.9219 1232 44.2891C1233.86 45.6562 1236.79 46.8281 1240.69 47.9023C1244.6 48.9766 1249.58 49.9531 1255.73 50.832C1263.93 52.1992 1270.96 54.0547 1276.82 56.4961C1282.59 59.0352 1287.08 61.9648 1290.2 65.2852C1293.33 68.7031 1295.48 72.2188 1296.84 75.9297C1298.21 79.6406 1298.89 83.7422 1298.89 88.2344C1298.89 100.051 1294.7 109.23 1286.39 115.871C1278.09 122.512 1265.5 125.832 1248.7 125.832ZM1307.9 123V2.98047H1398.53V30.2266H1336.71V50.4414H1393.55V74.3672H1336.71V95.7539H1398.53V123H1307.9ZM1465.74 125.832C1456.17 125.832 1447.38 124.27 1439.57 121.047C1431.75 117.922 1425.21 113.527 1420.04 107.863C1414.76 102.199 1410.76 95.5586 1407.93 87.8438C1405.09 80.1289 1403.73 71.7305 1403.73 62.6484C1403.73 50.6367 1406.17 39.8945 1411.25 30.5195C1416.32 21.1445 1423.55 13.7227 1433.02 8.35156C1442.4 2.98047 1453.34 0.246094 1465.74 0.246094C1478.14 0.246094 1489.08 2.98047 1498.45 8.35156C1507.83 13.7227 1515.05 21.1445 1520.04 30.5195C1525.02 39.8945 1527.55 50.6367 1527.55 62.6484C1527.55 74.7578 1525.11 85.5977 1520.33 95.0703C1515.45 104.641 1508.32 112.16 1498.94 117.629C1489.47 123.098 1478.43 125.832 1465.74 125.832ZM1465.74 99.9531C1476.48 99.9531 1484.78 96.6328 1490.45 89.8945C1496.11 83.1562 1498.94 73.9766 1498.94 62.3555C1498.94 52.0039 1496.01 43.3125 1490.25 36.4766C1484.39 29.6406 1476.29 26.2227 1465.74 26.2227C1455.19 26.2227 1446.99 29.6406 1441.23 36.4766C1435.37 43.3125 1432.54 52.0039 1432.54 62.3555C1432.54 73.9766 1435.37 83.1562 1441.03 89.8945C1446.7 96.6328 1454.9 99.9531 1465.74 99.9531Z" fill="black"/>
</svg>
